# xmcd
#
# Track frame offsets:
# 150
# 13522
# 25164
# 43770
# 58324
# 73297
# 86140
# 97014
# 110772
# 126165
#
# Disc length: 1886 seconds
#
#
# Revision: 0
# Processed by: cddbd v1.5.1PL2 Copyright (c) Steve Scherf et al.
# Submitted via: FreeRIP 2.945 
#
DISCID=92075c0a
DTITLE=Gene Watson - Reflections
DYEAR=1978
DGENRE=Country
TTITLE0=One Sided Conversation
TTITLE1=Take Off Them Shoes
TTITLE2=Farewell Party
TTITLE3=Let's Give It Up Or Get It On
TTITLE4=For The Memories
TTITLE5=I Wonder How It Is In Colorado
TTITLE6=Pick The Wildwood Flower
TTITLE7=I Know What It's Like In Her Arms
TTITLE8=Mama Sold Roses
TTITLE9=I Don't Know How To Tell Her
EXTD=
EXTT0=
EXTT1=
EXTT2=
EXTT3=
EXTT4=
EXTT5=
EXTT6=
EXTT7=
EXTT8=
EXTT9=
PLAYORDER=
